name C:\Users\u0150099\Documents\master_thesis\3dpredictsim\Results\debug\Fal_s1_mtjc5_sc_cspx10_oy2_MTc2_MTPm_k1_d01_MTJm_nl_MG_exp5_table_d01_PF_Natali2010_x5_ls146_ig21.mot
datacolumns 128
datarows 4
range 1.58386932 1.61554671
endheader
time	pelvis_tilt	pelvis_list	pelvis_rotation	pelvis_tx	pelvis_ty	pelvis_tz	hip_flexion_l	hip_adduction_l	hip_rotation_l	hip_flexion_r	hip_adduction_r	hip_rotation_r	knee_angle_l	knee_angle_r	ankle_angle_l	ankle_angle_r	subtalar_angle_l	subtalar_angle_r	mtj_angle_l	mtj_angle_r	mtp_angle_l	mtp_angle_r	lumbar_extension	lumbar_bending	lumbar_rotation	arm_flex_l	arm_add_l	arm_rot_l	arm_flex_r	arm_add_r	arm_rot_r	elbow_flex_l	elbow_flex_r	pro_sup_l	pro_sup_r	glut_med1_l/activation	glut_med2_l/activation	glut_med3_l/activation	glut_min1_l/activation	glut_min2_l/activation	glut_min3_l/activation	semimem_l/activation	semiten_l/activation	bifemlh_l/activation	bifemsh_l/activation	sar_l/activation	add_long_l/activation	add_brev_l/activation	add_mag1_l/activation	add_mag2_l/activation	add_mag3_l/activation	tfl_l/activation	pect_l/activation	grac_l/activation	glut_max1_l/activation	glut_max2_l/activation	glut_max3_l/activation	iliacus_l/activation	psoas_l/activation	quad_fem_l/activation	gem_l/activation	peri_l/activation	rect_fem_l/activation	vas_med_l/activation	vas_int_l/activation	vas_lat_l/activation	med_gas_l/activation	lat_gas_l/activation	soleus_l/activation	tib_post_l/activation	flex_dig_l/activation	flex_hal_l/activation	tib_ant_l/activation	per_brev_l/activation	per_long_l/activation	per_tert_l/activation	ext_dig_l/activation	ext_hal_l/activation	ercspn_l/activation	intobl_l/activation	extobl_l/activation	glut_med1_r/activation	glut_med2_r/activation	glut_med3_r/activation	glut_min1_r/activation	glut_min2_r/activation	glut_min3_r/activation	semimem_r/activation	semiten_r/activation	bifemlh_r/activation	bifemsh_r/activation	sar_r/activation	add_long_r/activation	add_brev_r/activation	add_mag1_r/activation	add_mag2_r/activation	add_mag3_r/activation	tfl_r/activation	pect_r/activation	grac_r/activation	glut_max1_r/activation	glut_max2_r/activation	glut_max3_r/activation	iliacus_r/activation	psoas_r/activation	quad_fem_r/activation	gem_r/activation	peri_r/activation	rect_fem_r/activation	vas_med_r/activation	vas_int_r/activation	vas_lat_r/activation	med_gas_r/activation	lat_gas_r/activation	soleus_r/activation	tib_post_r/activation	flex_dig_r/activation	flex_hal_r/activation	tib_ant_r/activation	per_brev_r/activation	per_long_r/activation	per_tert_r/activation	ext_dig_r/activation	ext_hal_r/activation	ercspn_r/activation	intobl_r/activation	extobl_r/activation	
          1.58386932	         -2.92592365	          1.46870224	         -3.53455537	          2.10654620	          0.90863833	          0.00329962	         29.64301687	          2.15551462	         -3.13621781	        -18.37251707	          0.71466883	          7.85437999	        -11.31237479	         -4.41828020	         10.53017476	          8.28327229	          1.32363724	          5.83906970	          4.05358728	         -0.22046192	         -9.72376415	          9.46529023	         -4.00712257	         -0.28890944	          1.61670940	         -5.79881995	        -13.48334768	          5.89296898	          6.56869087	        -13.57099347	         19.38651050	         22.78485565	         32.29527564	         86.51662706	         86.51662706	          0.05000024	          0.05000937	          0.05000084	          0.05879566	          0.05014146	          0.05000653	          0.22521405	          0.06846990	          0.32689953	          0.05933506	          0.05000178	          0.14720409	          0.13392223	          0.11480147	          0.08723767	          0.12122718	          0.05000062	          0.05005839	          0.10700358	          0.05000333	          0.05000114	          0.08419596	          0.05073477	          0.08817693	          0.11822599	          0.05018624	          0.05306888	          0.05000043	          0.05000141	          0.05000128	          0.05000086	          0.06402341	          0.05000026	          0.05000009	          0.05000022	          0.07949361	          0.05000794	          0.38433908	          0.12968791	          0.05003619	          0.26131868	          0.52104301	          0.15405152	          0.08674177	          0.09963295	          0.10553858	          0.37232974	          0.11245395	          0.09562638	          0.51590605	          0.26419984	          0.11963908	          0.05000151	          0.05000029	          0.05000023	          0.10249392	          0.11871951	          0.05000015	          0.05000022	          0.05000040	          0.05000140	          0.05000088	          0.68268495	          0.05000104	          0.05000112	          0.06169734	          0.05387146	          0.05000489	          0.39365899	          0.77930130	          0.05799734	          0.06914250	          0.08845091	          0.31770150	          0.05001227	          0.05001209	          0.05000855	          0.50185137	          0.56046028	          0.36705891	          0.28964291	          0.54179613	          0.37328178	          0.05000001	          0.05879869	          0.06870399	          0.05000023	          0.07790020	          0.09931770	          0.05000003	          0.05000008	          0.05000004	
          1.59442845	         -2.92941001	          1.58393068	         -3.89079102	          2.12253612	          0.90794983	          0.00305240	         29.37618978	          2.44791015	         -3.00093571	        -18.43228432	          0.37801807	          7.53396636	        -11.16659607	         -6.02308314	         10.35306560	          7.98429320	          1.25360370	          7.22910227	          4.15181806	         -1.31464074	         -9.89863514	         11.92738169	         -3.88736792	         -0.48170244	          1.72761911	         -6.52465490	        -13.46144172	          5.66241441	          6.41523480	        -13.51347093	         19.38296599	         22.37522146	         33.48282314	         86.51662706	         86.51662706	          0.13723368	          0.05000014	          0.05818876	          0.05000012	          0.05000017	          0.05000030	          0.21683368	          0.05880244	          0.31242602	          0.06914661	          0.05949242	          0.16669603	          0.18509298	          0.10272640	          0.07418577	          0.15749296	          0.05879854	          0.06861055	          0.12305567	          0.05000937	          0.05879901	          0.11976039	          0.05345993	          0.07498285	          0.24964165	          0.05000675	          0.05000063	          0.05000018	          0.05000142	          0.05000118	          0.05000100	          0.06373295	          0.05000060	          0.05000011	          0.05103722	          0.07132552	          0.05688658	          0.39340323	          0.13134303	          0.05255214	          0.24569493	          0.54905309	          0.21077535	          0.07980698	          0.10495389	          0.08974483	          0.36057446	          0.09562530	          0.08131597	          0.43870862	          0.22466256	          0.10173519	          0.05000126	          0.05000024	          0.05000019	          0.08715579	          0.10095336	          0.10159608	          0.05000015	          0.05000017	          0.05000055	          0.05000049	          0.58057102	          0.05000150	          0.05000056	          0.05246786	          0.05000338	          0.05000102	          0.33474830	          0.77430216	          0.05000024	          0.05879575	          0.07521432	          0.30827024	          0.05000047	          0.05000044	          0.05000047	          0.43910719	          0.48479265	          0.35405872	          0.24629818	          0.56552153	          0.34229096	          0.05408423	          0.05000009	          0.05842253	          0.05000011	          0.06624249	          0.08445488	          0.05000004	          0.05000002	          0.05000003	
          1.60498758	         -2.93017632	          1.69773638	         -4.23084743	          2.13884402	          0.90739346	          0.00277556	         29.12652861	          2.74329095	         -2.82642573	        -18.40961658	          0.02933530	          7.18521482	        -11.69870336	         -7.74963626	          9.87086119	          7.46601589	          1.20990089	          8.64305233	          4.26056003	         -2.48538114	        -10.09311692	         14.56327477	         -3.74598773	         -0.68043372	          1.83455638	         -7.29099408	        -13.45043635	          5.57479874	          6.17381615	        -13.47154010	         19.37932167	         22.03569934	         34.69642381	         86.51662706	         86.51662706	          0.11669704	          0.05879917	          0.05000014	          0.05880075	          0.05879951	          0.05002992	          0.18438476	          0.05000294	          0.26922746	          0.05879931	          0.05493079	          0.14815353	          0.15739435	          0.08735369	          0.25110685	          0.19235298	          0.05000061	          0.05835683	          0.10464142	          0.05000033	          0.05000014	          0.18980223	          0.06914778	          0.06914724	          0.51427935	          0.09566604	          0.05000044	          0.06914699	          0.05000082	          0.05000128	          0.05000120	          0.08131573	          0.05000022	          0.05000002	          0.05000007	          0.06914723	          0.06914638	          0.42692415	          0.18741064	          0.07712321	          0.27137018	          0.57609645	          0.17923305	          0.06786394	          0.08924765	          0.07631459	          0.31897664	          0.08131505	          0.06914710	          0.37305635	          0.19104199	          0.08651060	          0.05000412	          0.05000034	          0.05000027	          0.07411300	          0.08584583	          0.19624841	          0.15095232	          0.05001264	          0.05001451	          0.05000185	          0.54703796	          0.08140389	          0.05000334	          0.05000174	          0.05000126	          0.05000170	          0.28465347	          0.65842858	          0.05000025	          0.05000147	          0.06395857	          0.26213810	          0.13913043	          0.17862798	          0.11996535	          0.37339509	          0.41224378	          0.32529450	          0.20943984	          0.58507068	          0.29107167	          0.17720923	          0.11103415	          0.05758952	          0.05000026	          0.05632936	          0.07181627	          0.05000004	          0.05000077	          0.05000003	
          1.61554671	         -2.92843566	          1.81062766	         -4.54580339	          2.15541975	          0.90691084	          0.00248884	         28.86457704	          3.00115456	         -2.61731648	        -18.30827887	         -0.32317689	          6.81269914	        -12.82227630	         -9.59413653	          9.07087162	          6.75315076	          1.15596564	         10.02929540	          4.29085788	         -3.60097591	        -10.27941297	         17.03017957	         -3.58701209	         -0.88530971	          1.93440228	         -8.07790951	        -13.45230282	          5.60403994	          5.84581287	        -13.45114496	         19.38688708	         21.74469685	         35.94962586	         86.51662706	         86.51662706	          0.20475564	          0.05000010	          0.05000116	          0.05000130	          0.05000028	          0.05000016	          0.15679176	          0.05000014	          0.22893778	          0.05000020	          0.05880004	          0.12598273	          0.36829048	          0.34082816	          0.22878267	          0.24253995	          0.05000048	          0.06915151	          0.08901243	          0.05000103	          0.18734291	          0.26277208	          0.05880010	          0.05879962	          0.56209501	          0.08135007	          0.09030166	          0.05879928	          0.07836723	          0.08513632	          0.06692450	          0.06914701	          0.06914706	          0.06889229	          0.05000005	          0.05879952	          0.05879936	          0.49797919	          0.17120917	          0.07552970	          0.23075985	          0.62387566	          0.15241098	          0.05770816	          0.10784839	          0.06489417	          0.27124478	          0.06914632	          0.05879929	          0.31722895	          0.16245271	          0.07356436	          0.05000157	          0.05000079	          0.05000107	          0.06302206	          0.07299912	          0.29801865	          0.44413395	          0.05879983	          0.05880521	          0.15551824	          0.46517530	          0.06922638	          0.05001775	          0.05003665	          0.05002273	          0.05004462	          0.24205529	          0.61121404	          0.05541005	          0.05000173	          0.05438724	          0.22290934	          0.15551847	          0.15551852	          0.13427583	          0.31751676	          0.35055178	          0.27662614	          0.17809732	          0.49752625	          0.24751326	          0.36115548	          0.18778841	          0.06262949	          0.05000006	          0.05000003	          0.06106902	          0.08862875	          0.05000026	          0.05029552	
